<svg xmlns="http://www.w3.org/2000/svg" width="800" height="1000" viewBox="0 0 800 1000" role="img" aria-label="Photo coming soon">
  <rect width="800" height="1000" fill="#FAF6EE"/>
  <rect x="28" y="28" width="744" height="944" fill="none" stroke="#B8860B" stroke-width="2" opacity="0.5"/>
  <g transform="translate(400 405)" fill="none" stroke="#765306" stroke-width="9" stroke-linejoin="round" stroke-linecap="round" opacity="0.85">
    <path d="M-150 -55 h60 l24 -34 h132 l24 34 h60 a18 18 0 0 1 18 18 v150 a18 18 0 0 1 -18 18 h-300 a18 18 0 0 1 -18 -18 v-150 a18 18 0 0 1 18 -18 z"/>
    <circle cx="0" cy="42" r="58"/>
    <circle cx="0" cy="42" r="22" fill="#765306" stroke="none" opacity="0.55"/>
  </g>
  <text x="400" y="650" text-anchor="middle" font-family="'Cormorant Garamond', Georgia, 'Times New Roman', serif" font-size="78" font-weight="600" letter-spacing="1" fill="#1F1410">Photo</text>
  <text x="400" y="730" text-anchor="middle" font-family="'Cormorant Garamond', Georgia, 'Times New Roman', serif" font-size="78" font-weight="600" letter-spacing="1" fill="#1F1410">coming soon</text>
  <g stroke="#B8860B" stroke-width="2" opacity="0.7">
    <line x1="300" y1="772" x2="372" y2="772"/>
    <line x1="428" y1="772" x2="500" y2="772"/>
  </g>
  <circle cx="400" cy="772" r="4.5" fill="#B8860B" opacity="0.7"/>
</svg>
